<svg xmlns="http://www.w3.org/2000/svg" viewBox="0 0 32 32" fill="none">
  <!-- Toothbrush Tip Icon -->
  <path fill="#8C3573" d="M10 8C10 6.89543 10.8954 6 12 6H20C21.1046 6 22 6.89543 22 8V14C22 15.1046 21.1046 16 20 16H12C10.8954 16 10 15.1046 10 14V8Z" />
  <path fill="#8C3573" d="M12 4C12 3.44772 12.4477 3 13 3H14C14.5523 3 15 3.44772 15 4V6H12V4Z" />
  <path fill="#8C3573" d="M17 4C17 3.44772 17.4477 3 18 3H19C19.5523 3 20 3.44772 20 4V6H17V4Z" />
  <path fill="#8C3573" d="M14 16V22C14 24.2091 15.7909 26 18 26H24V28H18C14.6863 28 12 25.3137 12 22V16H14Z" opacity="0.5"/>
</svg>
